<svg xmlns="http://www.w3.org/2000/svg" viewBox="0 0 512 512">
  <path d="M120 32h176l104 104v320a16 16 0 0 1-16 16H120a16 16 0 0 1-16-16V48a16 16 0 0 1 16-16z" fill="#eceff1" stroke="#1b1b1b" stroke-width="16" stroke-linejoin="round"/>
  <path d="M296 32l104 104h-88a16 16 0 0 1-16-16z" fill="#dfe3e6" stroke="#1b1b1b" stroke-width="16" stroke-linejoin="round"/>
  <rect x="176" y="150" width="180" height="150" rx="10" fill="#7ac47f" stroke="#1b1b1b" stroke-width="14"/>
  <g stroke="#1b1b1b" stroke-width="12">
    <line x1="176" y1="200" x2="356" y2="200"/>
    <line x1="176" y1="250" x2="356" y2="250"/>
    <line x1="236" y1="150" x2="236" y2="300"/>
    <line x1="296" y1="150" x2="296" y2="300"/>
  </g>
  <rect x="28" y="300" width="212" height="112" rx="16" fill="#6fbf73" stroke="#1b1b1b" stroke-width="14"/>
  <text x="134" y="379" font-family="Arial, Helvetica, sans-serif" font-weight="800" font-size="78" fill="#0f2e12" text-anchor="middle">CSV</text>
</svg>
